<mxfile host="app.diagrams.net" modified="2023-05-02T07:56:22.501Z" agent="Mozilla/5.0 (Windows NT 10.0; Win64; x64) AppleWebKit/537.36 (KHTML, like Gecko) Chrome/112.0.0.0 Safari/537.36" version="21.2.3" etag="TFOA8X6ZIyo5OXlpSv0J" type="github">
  <diagram name="Page-1" id="7Z9ntMzbPnFYkaF0n_xQ">
    <mxGraphModel>
      <root>
        <mxCell id="0" />
        <mxCell id="1" parent="0" />
      </root>
    </mxGraphModel>
  </diagram>
</mxfile>
